<?xml version="1.0" encoding="UTF-8" standalone="no"?>
<svg
   xmlns:dc="http://purl.org/dc/elements/1.1/"
   xmlns:cc="http://creativecommons.org/ns#"
   xmlns:rdf="http://www.w3.org/1999/02/22-rdf-syntax-ns#"
   xmlns:svg="http://www.w3.org/2000/svg"
   xmlns="http://www.w3.org/2000/svg"
   xmlns:sodipodi="http://sodipodi.sourceforge.net/DTD/sodipodi-0.dtd"
   xmlns:inkscape="http://www.inkscape.org/namespaces/inkscape"
   version="1.0"
   id="gtx-logo"
   width="500.000000pt"
   height="579.000000pt"
   viewBox="0 0 500.000000 579.000000"
   preserveAspectRatio="xMidYMid meet"
   sodipodi:docname="gentics-logo-administration.svg"
   inkscape:version="0.92.2 5c3e80d, 2017-08-06">
  <defs
     id="defs845" />
  <sodipodi:namedview
     pagecolor="#ffffff"
     bordercolor="#666666"
     borderopacity="1"
     objecttolerance="10"
     gridtolerance="10"
     guidetolerance="10"
     inkscape:pageopacity="0"
     inkscape:pageshadow="2"
     inkscape:window-width="1920"
     inkscape:window-height="1035"
     id="namedview843"
     showgrid="false"
     inkscape:zoom="1.032"
     inkscape:cx="139.53488"
     inkscape:cy="335.1473"
     inkscape:window-x="1443"
     inkscape:window-y="0"
     inkscape:window-maximized="0"
     inkscape:current-layer="gtx-logo" />
  <metadata
     id="metadata834">
Created by potrace 1.12, written by Peter Selinger 2001-2015
<rdf:RDF>
  <cc:Work
     rdf:about="">
    <dc:format>image/svg+xml</dc:format>
    <dc:type
       rdf:resource="http://purl.org/dc/dcmitype/StillImage" />
  </cc:Work>
</rdf:RDF>
</metadata>
  <g
     transform="matrix(0.07935806,0,0,-0.08100247,51.592924,523.99301)"
     id="g840"
     style="fill:#00a0d2;stroke:none">
    <path
       d="m 2417,5780 c -21,-6 -52,-17 -70,-26 C 2323,5741 333,4570 164,4469 121,4443 56,4371 28,4318 L 5,4275 2,2913 0,1551 21,1495 C 65,1376 41,1393 1234,690 1832,337 2343,38 2369,27 c 65,-30 197,-30 262,0 34,15 1874,1096 2205,1294 43,26 108,98 136,151 l 23,43 3,1362 c 2,1355 2,1362 -18,1417 -61,163 -257,260 -425,211 -41,-12 -278,-145 -765,-432 -774,-455 -786,-463 -829,-578 -28,-75 -28,-184 0,-260 27,-72 104,-156 176,-191 75,-37 185,-44 263,-17 30,10 240,127 466,261 227,133 414,242 418,242 3,0 5,-383 4,-851 l -3,-851 -888,-524 c -488,-288 -892,-524 -897,-524 -5,0 -409,236 -897,524 l -888,524 v 1067 1067 l 888,524 c 488,288 892,524 897,524 5,0 184,-103 397,-229 258,-152 408,-235 447,-246 162,-47 339,35 417,193 20,40 24,63 24,147 0,88 -3,107 -26,156 -15,32 -44,74 -66,96 -37,37 -964,593 -1059,635 -52,22 -162,32 -217,18 z"
       id="path836"
       inkscape:connector-curvature="0" />
    <path
       d="m 2343,3231 c -222,-82 -310,-351 -181,-553 80,-127 249,-192 398,-154 115,30 199,99 249,206 23,48 26,68 26,155 0,89 -3,106 -28,157 -36,73 -102,139 -174,174 -76,38 -211,45 -290,15 z"
       id="path838"
       inkscape:connector-curvature="0" />
  </g>
  <g
     id="g911"
     transform="matrix(7.5,0,0,7.4999998,285.91458,331.30176)"
     style="fill-rule:nonzero">
    <path
       id="path897"
       d="M 0,0 H 24 V 24 H 0 Z"
       inkscape:connector-curvature="0"
       style="clip-rule:evenodd;fill:none;fill-rule:nonzero" />
    <path
       id="path899"
       d="M 22.7,19 13.6,9.9 C 14.5,7.6 14,4.9 12.1,3 10.1,1 7.1,0.6 4.7,1.7 L 9,6 6,9 1.6,4.7 c -1.2,2.4 -0.7,5.4 1.3,7.4 1.9,1.9 4.6,2.4 6.9,1.5 l 9.1,9.1 c 0.4,0.4 1,0.4 1.4,0 l 2.3,-2.3 C 23.1,20 23.1,19.3 22.7,19 Z"
       inkscape:connector-curvature="0"
       style="fill:#ffcc00;fill-opacity:1;fill-rule:nonzero" />
  </g>
</svg>
